<?xml version="1.0" encoding="utf-8"?>
<svg version="1.1" xmlns="http://www.w3.org/2000/svg" xmlns:xlink="http://www.w3.org/1999/xlink">
  <svg id="active" viewBox="0 0 426 426">
    <path d="M213.333,0C95.518,0,0,95.514,0,213.333s95.518,213.333,213.333,213.333 c117.828,0,213.333-95.514,213.333-213.333S331.157,0,213.333,0z M174.199,322.918l-93.935-93.931l31.309-31.309l62.626,62.622 l140.894-140.898l31.309,31.309L174.199,322.918z"/>
  </svg>
  
  <svg id="right-arrow" viewBox="0 0 31 31">
    <path d="M21.205,5.007c-0.429-0.444-1.143-0.444-1.587,0c-0.429,0.429-0.429,1.143,0,1.571l8.047,8.047H1.111 C0.492,14.626,0,15.118,0,15.737c0,0.619,0.492,1.127,1.111,1.127h26.554l-8.047,8.032c-0.429,0.444-0.429,1.159,0,1.587 c0.444,0.444,1.159,0.444,1.587,0l9.952-9.952c0.444-0.429,0.444-1.143,0-1.571L21.205,5.007z"/>
  </svg>

 <svg id="menu" viewBox="0 0 24 24">
  <path d="M 2 5 L 2 7 L 22 7 L 22 5 L 2 5 z M 2 11 L 2 13 L 22 13 L 22 11 L 2 11 z M 2 17 L 2 19 L 22 19 L 22 17 L 2 17 z"/>
</svg>

  <svg version="1.1" id="Logo" x="0px" y="0px"
    viewBox="0 0 409.6 409.6" style="enable-background:new 0 0 409.6 409.6;" xml:space="preserve">
  <path style="fill:#DC8744;" d="M157.696,100.096H130.56V31.488c0-4.608,3.584-7.68,7.68-7.68h11.264c4.608,0,7.68,3.584,7.68,7.68
    v68.608H157.696z"/>
  <polygon style="fill:#E56353;" points="92.672,86.784 108.032,56.064 134.144,86.784 169.472,56.064 169.472,86.784 215.552,71.424 
    206.848,105.728 240.64,105.728 226.816,137.984 260.608,168.704 240.64,168.704 251.392,210.176 236.032,210.176 249.856,249.088 
    215.552,241.408 249.856,282.88 222.208,282.88 228.352,304.384 202.24,293.632 202.24,327.424 184.832,310.528 176.64,335.104 
    160.256,316.672 157.184,344.32 138.752,321.28 128,344.32 115.712,324.352 101.888,344.32 92.672,318.208 61.44,325.888 
    61.44,302.848 19.968,285.952 50.688,279.808 7.68,261.376 38.4,258.304 0,230.656 27.648,233.728 0,210.176 18.432,200.448 
    0,177.92 19.968,177.92 0,133.376 27.648,147.2 24.576,96 41.472,121.088 46.08,76.032 69.632,100.608 72.704,56.064 "/>
  <g>
    
      <rect x="171.126" y="119.627" transform="matrix(-0.5663 -0.8242 0.8242 -0.5663 166.9087 362.4116)" style="fill:#D15241;" width="15.36" height="35.328"/>
    
      <rect x="94.808" y="119.732" transform="matrix(-0.5663 -0.8242 0.8242 -0.5663 47.2856 299.674)" style="fill:#D15241;" width="15.36" height="35.328"/>
    
      <rect x="52.094" y="162.684" transform="matrix(-0.5663 -0.8242 0.8242 -0.5663 -55.0183 331.7449)" style="fill:#D15241;" width="15.36" height="35.328"/>
    
      <rect x="113.689" y="182.759" transform="matrix(-0.5663 -0.8242 0.8242 -0.5663 24.9114 413.9552)" style="fill:#D15241;" width="15.36" height="35.328"/>
    
      <rect x="190.127" y="166.337" transform="matrix(-0.5663 -0.8242 0.8242 -0.5663 158.172 451.2324)" style="fill:#D15241;" width="15.36" height="35.328"/>
    
      <rect x="86.197" y="252.702" transform="matrix(-0.5663 -0.8242 0.8242 -0.5663 -75.7961 500.847)" style="fill:#D15241;" width="15.36" height="35.328"/>
    
      <rect x="151.951" y="260.736" transform="matrix(-0.5663 -0.8242 0.8242 -0.5663 20.5721 567.6259)" style="fill:#D15241;" width="15.36" height="35.328"/>
    
      <rect x="189.89" y="203.069" transform="matrix(-0.5663 -0.8242 0.8242 -0.5663 127.5261 508.5717)" style="fill:#D15241;" width="15.36" height="35.328"/>
    
      <rect x="48.575" y="211.457" transform="matrix(-0.5663 -0.8242 0.8242 -0.5663 -100.7285 405.2371)" style="fill:#D15241;" width="15.36" height="35.328"/>
  </g>
  <ellipse transform="matrix(-0.008 -1 1 -0.008 -2.328 511.249)" style="fill:#EBF0F3;" cx="252.426" cy="256.779" rx="102.915" ry="108.547"/>
  <path style="fill:#E1E6E9;" d="M360.448,255.744c-0.512-56.832-49.152-102.912-109.056-102.4S143.36,200.448,143.872,257.28
    L360.448,255.744z"/>
  <polygon style="fill:#E56353;" points="253.952,132.352 256.512,147.712 292.864,128.256 290.304,163.072 326.144,122.624 
    330.24,150.272 350.72,141.056 344.064,168.704 377.856,163.584 363.52,182.528 389.12,187.136 373.248,206.08 401.408,205.056 
    380.928,226.56 405.504,233.728 387.584,249.088 409.6,259.84 385.024,273.152 397.312,302.336 374.272,305.92 364.032,349.44 
    353.28,320.256 341.504,365.312 333.824,335.616 312.32,377.6 310.784,349.952 292.352,380.672 279.552,364.288 260.608,385.792 "/>
  <g>
    
      <rect x="279.963" y="302.173" transform="matrix(-0.729 0.6845 -0.6845 -0.729 716.2667 356.1059)" style="fill:#D15241;" width="15.36" height="35.328"/>
    
      <rect x="309.181" y="278.682" transform="matrix(-0.729 0.6845 -0.6845 -0.729 750.7049 295.4903)" style="fill:#D15241;" width="15.36" height="35.328"/>
    
      <rect x="344.337" y="240.228" transform="matrix(-0.729 0.6845 -0.6845 -0.729 785.1674 204.9387)" style="fill:#D15241;" width="15.36" height="35.328"/>
    
      <rect x="276.998" y="222.957" transform="matrix(-0.729 0.6845 -0.6845 -0.729 656.9162 221.1713)" style="fill:#D15241;" width="15.36" height="35.328"/>
    
      <rect x="308.184" y="179.954" transform="matrix(-0.729 0.6845 -0.6845 -0.729 681.4019 125.4712)" style="fill:#D15241;" width="15.36" height="35.328"/>
  </g>
  <g>
  </g>
  <g>
  </g>
  <g>
  </g>
  <g>
  </g>
  <g>
  </g>
  <g>
  </g>
  <g>
  </g>
  <g>
  </g>
  <g>
  </g>
  <g>
  </g>
  <g>
  </g>
  <g>
  </g>
  <g>
  </g>
  <g>
  </g>
  <g>
  </g>
  </svg>
</svg>
